# File created by Blade
# Date/Time:  Fri Jan 16 14:33:41 2015
# Frame Rate: 120.000 fps
#------------------------------------------------------
:FULLY-SPECIFIED
:DEGREES
1880
root 19.106071 35.852638 -23.678954 -171.039480 -10.163361 -179.916425
Spine -18.731576 0.185766 -3.623001
Head 5.956492 -13.866583 2.791347
LeftShoulder -9.660907 -18.835498 -6.552890
LeftArm -15.728945 8.764941 -71.800144
LeftForeArm 3.885590 0.000000 5.941088
LeftHand -1.660535 -0.000000 1.510609
LeftHandThumb1 -26.253704 0.000000 33.147579
RightShoulder -6.078629 14.219878 -37.471810
RightArm 35.494801 61.184519 1.871150
RightForeArm -31.984422 -0.000000 71.541684
RightHand 4.108034 -0.000000 -10.768579
RightHandThumb1 -24.326973 -0.000000 -32.862282
LeftUpLeg -2.797272 5.072469 0.203348
LeftLeg -5.491280 -0.000000 0.000000
LeftFoot -17.045013 22.494935 -15.814186
LeftToeBase 24.594547 -0.000000 -0.000000
RightUpLeg -2.143831 -16.952212 3.487745
RightLeg -3.448256 -0.000000 0.000000
RightFoot -21.079864 -26.348235 18.344650
RightToeBase 21.772176 -0.000000 -0.000000
1881
root 19.109477 35.852022 -23.679792 -171.046638 -10.169951 -179.918767
Spine -18.738449 0.174359 -3.618153
Head 5.994986 -13.959168 2.801602
LeftShoulder -9.667328 -18.861927 -6.577212
LeftArm -15.746229 8.776503 -71.778662
LeftForeArm 3.850225 -0.000000 5.953631
LeftHand -1.655126 -0.000000 1.525793
LeftHandThumb1 -26.253704 0.000000 33.147579
RightShoulder -6.064603 14.174756 -37.527711
RightArm 35.687751 61.139477 2.037065
RightForeArm -32.350037 -0.000000 72.595707
RightHand 4.126979 0.000000 -11.085063
RightHandThumb1 -24.326973 -0.000000 -32.862282
LeftUpLeg -2.792557 5.060596 0.208776
LeftLeg -5.486012 -0.000000 0.000000
LeftFoot -17.060038 22.499384 -15.818871
LeftToeBase 24.616236 -0.000000 -0.000000
RightUpLeg -2.139070 -16.968319 3.489392
RightLeg -3.438784 -0.000000 0.000000
RightFoot -21.089822 -26.333805 18.349995
RightToeBase 21.752399 -0.000000 -0.000000
1882
root 19.113144 35.851849 -23.680811 -171.049082 -10.172512 -179.921102
Spine -18.736891 0.171732 -3.623287
Head 6.001280 -13.958004 2.802001
LeftShoulder -9.695316 -18.891668 -6.591060
LeftArm -15.746306 8.775182 -71.750625
LeftForeArm 3.851794 -0.000000 5.973878
LeftHand -1.672562 0.000000 1.536200
LeftHandThumb1 -26.253704 0.000000 33.147579
RightShoulder -6.076065 14.120822 -37.582025
RightArm 35.951454 61.108568 2.283964
RightForeArm -33.021761 -0.000000 73.671720
RightHand 4.021335 -0.000000 -11.534109
RightHandThumb1 -24.326973 -0.000000 -32.862282
LeftUpLeg -2.792675 5.064851 0.212768
LeftLeg -5.479809 -0.000000 0.000000
LeftFoot -17.058575 22.491096 -15.826491
LeftToeBase 24.605558 -0.000000 -0.000000
RightUpLeg -2.136175 -16.972233 3.493034
RightLeg -3.440263 -0.000000 0.000000
RightFoot -21.095916 -26.337138 18.352918
RightToeBase 21.758040 -0.000000 -0.000000
1883
root 19.116290 35.851287 -23.681906 -171.053608 -10.187200 -179.923787
Spine -18.737016 0.164591 -3.623937
Head 6.013323 -14.002880 2.798854
LeftShoulder -9.699741 -18.894946 -6.622768
LeftArm -15.741176 8.759834 -71.721336
LeftForeArm 3.865111 -0.000000 6.022735
LeftHand -1.722181 -0.000000 1.574212
LeftHandThumb1 -26.253704 0.000000 33.147579
RightShoulder -6.066784 14.082030 -37.647627
RightArm 36.160622 61.088152 2.521561
RightForeArm -33.954023 -0.000000 74.774845
RightHand 4.018225 0.000000 -11.808315
RightHandThumb1 -24.326973 -0.000000 -32.862282
LeftUpLeg -2.792638 5.044365 0.217783
LeftLeg -5.470957 -0.000000 0.000000
LeftFoot -17.069315 22.500708 -15.821221
LeftToeBase 24.626485 -0.000000 -0.000000
RightUpLeg -2.130341 -17.001699 3.496532
RightLeg -3.435811 -0.000000 0.000000
RightFoot -21.101856 -26.324694 18.330547
RightToeBase 21.811774 -0.000000 -0.000000
